<svg xmlns="http://www.w3.org/2000/svg" version="1.1" xmlns:xlink="http://www.w3.org/1999/xlink" viewBox="0 0 200 200" width="200" height="200"><metadata><rdf:RDF xmlns:rdf="http://www.w3.org/1999/02/22-rdf-syntax-ns#" xmlns:dc="http://purl.org/dc/elements/1.1/"><rdf:Description><dc:creator>RealFaviconGenerator</dc:creator><dc:source>https://realfavicongenerator.net</dc:source></rdf:Description></rdf:RDF></metadata><rect width="200" height="200" fill="url('#gradient')"></rect><defs><linearGradient id="gradient" gradientTransform="rotate(161 0.5 0.5)"><stop offset="0%" stop-color="#11bdc7"></stop><stop offset="100%" stop-color="#ee8b49"></stop></linearGradient></defs><g><g fill="#fff2f8" transform="matrix(1.840806950963747,0,0,1.840806950963747,9.355502165186529,113.62431486638933)" stroke="#11bdc7" stroke-width="0.2"><path d="M12.24-14.22L12.24-11.57L7.97-11.57L7.97 0L4.54 0L4.54-11.57L0.35-11.57L0.35-14.22L12.24-14.22ZM19.35-10.64L19.29-7.59L18.20-7.67Q16.65-7.67 16.21-6.69L16.21-6.69L16.21 0L12.92 0L12.92-10.57L16.01-10.57L16.11-9.21Q16.94-10.76 18.43-10.76L18.43-10.76Q18.96-10.76 19.35-10.64L19.35-10.64ZM29.42 0L26.13 0Q25.96-0.32 25.82-0.95L25.82-0.95Q24.91 0.20 23.28 0.20L23.28 0.20Q21.79 0.20 20.74-0.71Q19.70-1.61 19.70-2.98L19.70-2.98Q19.70-4.70 20.97-5.58Q22.24-6.46 24.66-6.46L24.66-6.46L25.67-6.46L25.67-7.01Q25.67-8.47 24.41-8.47L24.41-8.47Q23.24-8.47 23.24-7.31L23.24-7.31L19.95-7.31Q19.95-8.85 21.25-9.80Q22.56-10.76 24.58-10.76Q26.60-10.76 27.77-9.78Q28.95-8.79 28.97-7.07L28.97-7.07L28.97-2.39Q28.99-0.94 29.42-0.17L29.42-0.17L29.42 0ZM24.07-2.15L24.07-2.15Q24.69-2.15 25.09-2.41Q25.50-2.68 25.67-3.01L25.67-3.01L25.67-4.70L24.72-4.70Q23.00-4.70 23.00-3.15L23.00-3.15Q23.00-2.71 23.30-2.43Q23.60-2.15 24.07-2.15ZM33.22-10.57L34.86-3.92L36.53-10.57L40-10.57L36.55 0L33.19 0L29.75-10.57L33.22-10.57ZM45.97 0.20L45.97 0.20Q43.54 0.20 42.03-1.25Q40.53-2.71 40.53-5.03L40.53-5.03L40.53-5.30Q40.53-6.92 41.13-8.16Q41.73-9.40 42.88-10.08Q44.03-10.76 45.62-10.76L45.62-10.76Q47.84-10.76 49.13-9.38Q50.42-8.00 50.42-5.53L50.42-5.53L50.42-4.25L43.88-4.25Q44.05-3.36 44.65-2.85Q45.24-2.34 46.19-2.34L46.19-2.34Q47.75-2.34 48.63-3.44L48.63-3.44L50.14-1.66Q49.52-0.81 48.39-0.31Q47.27 0.20 45.97 0.20ZM45.60-8.22L45.60-8.22Q44.15-8.22 43.88-6.31L43.88-6.31L47.20-6.31L47.20-6.56Q47.22-7.35 46.80-7.79Q46.38-8.22 45.60-8.22ZM55.21-15L55.21 0L51.91 0L51.91-15L55.21-15ZM69.27-14.22L69.27 0L65.86 0L60.82-8.85L60.82 0L57.39 0L57.39-14.22L60.82-14.22L65.85-5.37L65.85-14.22L69.27-14.22ZM76.40 0.20L76.40 0.20Q73.96 0.20 72.46-1.25Q70.96-2.71 70.96-5.03L70.96-5.03L70.96-5.30Q70.96-6.92 71.56-8.16Q72.16-9.40 73.31-10.08Q74.46-10.76 76.04-10.76L76.04-10.76Q78.27-10.76 79.56-9.38Q80.85-8.00 80.85-5.53L80.85-5.53L80.85-4.25L74.31-4.25Q74.48-3.36 75.08-2.85Q75.67-2.34 76.62-2.34L76.62-2.34Q78.18-2.34 79.06-3.44L79.06-3.44L80.57-1.66Q79.95-0.81 78.82-0.31Q77.70 0.20 76.40 0.20ZM76.03-8.22L76.03-8.22Q74.58-8.22 74.31-6.31L74.31-6.31L77.63-6.31L77.63-6.56Q77.65-7.35 77.23-7.79Q76.81-8.22 76.03-8.22ZM87.71-2.97L87.71-2.97Q87.71-3.39 87.27-3.64Q86.83-3.90 85.60-4.17Q84.37-4.44 83.56-4.89Q82.76-5.33 82.34-5.97Q81.92-6.60 81.92-7.42L81.92-7.42Q81.92-8.88 83.13-9.82Q84.33-10.76 86.27-10.76L86.27-10.76Q88.36-10.76 89.63-9.81Q90.90-8.87 90.90-7.32L90.90-7.32L87.60-7.32Q87.60-8.59 86.26-8.59L86.26-8.59Q85.74-8.59 85.39-8.31Q85.04-8.02 85.04-7.59L85.04-7.59Q85.04-7.15 85.47-6.88Q85.90-6.60 86.84-6.43Q87.78-6.25 88.50-6.01L88.50-6.01Q90.88-5.19 90.88-3.07L90.88-3.07Q90.88-1.62 89.59-0.71Q88.31 0.20 86.27 0.20L86.27 0.20Q84.91 0.20 83.85-0.29Q82.78-0.78 82.19-1.62Q81.59-2.46 81.59-3.39L81.59-3.39L84.67-3.39Q84.69-2.66 85.16-2.32Q85.63-1.98 86.36-1.98L86.36-1.98Q87.03-1.98 87.37-2.26Q87.71-2.53 87.71-2.97ZM92.96-13.19L96.25-13.19L96.25-10.57L97.99-10.57L97.99-8.28L96.25-8.28L96.25-3.45Q96.25-2.85 96.46-2.62Q96.68-2.38 97.31-2.38L97.31-2.38Q97.80-2.38 98.13-2.44L98.13-2.44L98.13-0.09Q97.25 0.20 96.28 0.20L96.28 0.20Q94.58 0.20 93.77-0.61Q92.96-1.41 92.96-3.04L92.96-3.04L92.96-8.28L91.61-8.28L91.61-10.57L92.96-10.57L92.96-13.19Z"></path></g></g></svg>